<svg width="36" height="36" viewBox="0 0 36 36" fill="none" xmlns="http://www.w3.org/2000/svg">
<g clip-path="url(#clip0_4093_41411)">
<path d="M27.5029 27.5085H23.5046V21.2434C23.5046 19.7494 23.4743 17.8267 21.4211 17.8267C19.3365 17.8267 19.0181 19.4524 19.0181 21.1331V27.5085H15.0199V14.625H18.8606V16.3811H18.9124C19.449 15.3686 20.754 14.2999 22.7036 14.2999C26.7547 14.2999 27.504 16.9661 27.504 20.4368V27.5085H27.5029ZM10.5041 12.8621C9.21712 12.8621 8.18325 11.8204 8.18325 10.539C8.18325 9.25875 9.21825 8.21813 10.5041 8.21813C11.7866 8.21813 12.8261 9.25875 12.8261 10.539C12.8261 11.8204 11.7855 12.8621 10.5041 12.8621ZM12.5089 27.5085H8.49938V14.625H12.5089V27.5085ZM29.5031 4.5H6.49238C5.391 4.5 4.5 5.37075 4.5 6.44512V29.5549C4.5 30.6304 5.391 31.5 6.49238 31.5H29.4998C30.6 31.5 31.5 30.6304 31.5 29.5549V6.44512C31.5 5.37075 30.6 4.5 29.4998 4.5H29.5031Z" fill="#0A66C2"/>
</g>
<defs>
<clipPath id="clip0_4093_41411">
<rect width="27" height="27" fill="white" transform="translate(4.5 4.5)"/>
</clipPath>
</defs>
</svg>
