<svg width="190" height="60" viewBox="0 0 190 60" fill="none" xmlns="http://www.w3.org/2000/svg">
<path d="M92.7696 18.0635C92.7696 12.8733 89.558 9.78125 84.1654 9.78125H77.7236V26.3457H84.1654C89.4752 26.3457 92.7696 23.1708 92.7696 18.0635ZM81.0457 23.4101V12.7168H84.1009C87.4138 12.7168 89.3923 14.7138 89.3923 18.0635C89.4451 18.7744 89.3448 19.4883 89.0983 20.1572C88.8518 20.826 88.4648 21.4343 87.9634 21.941C87.4619 22.4476 86.8578 22.8409 86.1915 23.0944C85.5252 23.3478 84.8123 23.4554 84.1009 23.4101H81.0457Z" fill="#141A52"/>
<path d="M111.819 22.7941C111.819 25.1868 113.052 26.3463 115.583 26.3463H118.997V23.5856H117.046C115.573 23.5856 114.975 22.9782 114.975 21.469V17.4291H118.997V14.8524H114.975V10.3984H111.819V14.8708H108.764V17.4475H111.819V22.7941Z" fill="#141A52"/>
<path d="M170.714 18.933H170.383C169.932 18.933 169.573 18.8778 169.14 18.8225C167.788 18.6937 167.502 18.0771 167.502 17.5802C167.502 16.8072 168.248 16.3471 169.499 16.3471C169.905 16.3198 170.311 16.3805 170.691 16.525C171.07 16.6696 171.414 16.8945 171.699 17.1845H175.094C174.754 16.1906 173.576 14.2305 169.527 14.2305C166.251 14.2305 164.3 15.574 164.3 17.8194C164.3 20.5802 166.739 21.3348 168.791 21.5004L170.466 21.6385C170.88 21.6385 172.168 21.7765 172.168 22.9636C172.168 23.2673 172.002 24.252 169.96 24.252C169.511 24.2978 169.058 24.2279 168.644 24.0491C168.23 23.8703 167.869 23.5885 167.594 23.2305H164.144C164.447 24.1507 165.662 26.4054 169.96 26.4054C173.456 26.4054 175.389 25.1078 175.389 22.7244C175.389 20.3409 173.999 19.1722 170.714 18.933Z" fill="#141A52"/>
<path d="M82.941 33.6445H77.7324V50.1905H80.7232V36.0004L85.895 50.2181H88.1036L93.3398 35.9175V50.1905H96.5238V33.6445H91.5637L87.2478 45.2212L82.941 33.6445Z" fill="#141A52"/>
<path d="M105.165 38.1067C104.358 38.0613 103.551 38.1869 102.796 38.4752C102.042 38.7636 101.356 39.2082 100.785 39.78C100.215 40.3517 99.771 41.0376 99.4838 41.7928C99.1966 42.548 99.0723 43.3554 99.1189 44.162C99.1189 47.7785 101.65 50.208 105.423 50.208C108.947 50.208 110.659 48.2938 111.036 46.8951H107.852C107.405 47.3241 106.848 47.6209 106.243 47.7523C105.638 47.8838 105.008 47.8449 104.423 47.6399C103.839 47.4349 103.323 47.0719 102.932 46.5911C102.541 46.1103 102.292 45.5307 102.211 44.9166V44.5944H111.248V44.2264C111.211 40.5086 108.837 38.1067 105.165 38.1067ZM102.193 42.8644L102.285 42.5055C102.454 41.8712 102.828 41.3107 103.349 40.9108C103.87 40.511 104.508 40.2942 105.165 40.2942C105.822 40.2942 106.46 40.511 106.981 40.9108C107.501 41.3107 107.876 41.8712 108.045 42.5055L108.137 42.8644H102.193Z" fill="#141A52"/>
<path d="M119.181 42.7923H118.869C118.408 42.7923 118.05 42.7371 117.608 42.6819C116.255 42.553 115.97 41.9364 115.97 41.4395C115.97 40.6665 116.715 40.1972 117.967 40.1972C118.372 40.1686 118.778 40.2297 119.156 40.376C119.535 40.5224 119.877 40.7504 120.157 41.0438H123.553C123.212 40.0499 122.034 38.0898 117.985 38.0898C114.718 38.0898 112.767 39.4334 112.767 41.6696C112.767 44.4303 115.206 45.1941 117.249 45.3505L118.915 45.4978C119.338 45.4978 120.617 45.6358 120.617 46.823C120.617 47.1266 120.461 48.1113 118.408 48.1113C117.96 48.1562 117.507 48.086 117.093 47.9073C116.68 47.7285 116.318 47.4472 116.043 47.0898H112.556C112.869 48.0101 114.083 50.2647 118.372 50.2647C121.878 50.2647 123.801 48.9579 123.801 46.5837C123.801 44.2095 122.448 43.0315 119.181 42.7923Z" fill="#141A52"/>
<path d="M103.739 14.6157V16.7046C103.314 16.0084 102.722 15.4296 102.016 15.0213C101.311 14.613 100.514 14.3881 99.6988 14.3672C96.8828 14.3672 94.6006 17.0543 94.6006 20.358C94.6006 23.6617 96.8828 26.3488 99.6988 26.3488C100.514 26.3304 101.312 26.1066 102.018 25.698C102.725 25.2895 103.316 24.7093 103.739 24.0113V26.1095H106.867V14.6157H103.739ZM100.591 23.6985C99.9238 23.7372 99.26 23.5746 98.6859 23.2319C98.1117 22.8891 97.6536 22.3819 97.3709 21.7759C97.0882 21.17 96.9939 20.4931 97.1001 19.8329C97.2063 19.1727 97.5083 18.5596 97.9668 18.0729C98.4253 17.5862 99.0194 17.2483 99.6721 17.1029C100.325 16.9576 101.006 17.0115 101.628 17.2577C102.25 17.5038 102.783 17.9309 103.159 18.4836C103.536 19.0364 103.737 19.6893 103.739 20.358C103.763 21.2181 103.446 22.0529 102.856 22.6792C102.266 23.3054 101.451 23.672 100.591 23.6985Z" fill="#141A52"/>
<path d="M129.653 14.6157V16.7046C129.228 16.0089 128.636 15.4306 127.93 15.0224C127.225 14.6141 126.428 14.3889 125.613 14.3672C122.797 14.3672 120.506 17.0543 120.506 20.358C120.506 23.6617 122.797 26.3488 125.613 26.3488C126.428 26.3288 127.226 26.1042 127.932 25.6958C128.637 25.2874 129.229 24.7082 129.653 24.0113V26.1095H132.782V14.6157H129.653ZM126.543 23.6985C125.875 23.7372 125.211 23.5746 124.637 23.2319C124.063 22.8891 123.605 22.3819 123.322 21.7759C123.039 21.17 122.945 20.4931 123.051 19.8329C123.158 19.1727 123.46 18.5596 123.918 18.0729C124.377 17.5862 124.971 17.2483 125.623 17.1029C126.276 16.9576 126.957 17.0115 127.579 17.2577C128.201 17.5038 128.734 17.9309 129.111 18.4836C129.487 19.0364 129.689 19.6893 129.69 20.358C129.715 21.2181 129.397 22.0529 128.807 22.6792C128.217 23.3054 127.403 23.672 126.543 23.6985Z" fill="#141A52"/>
<path d="M158.87 14.6157V16.7046C158.448 16.0091 157.857 15.4307 157.153 15.0224C156.449 14.614 155.653 14.3888 154.84 14.3672C152.015 14.3672 149.732 17.0543 149.732 20.358C149.732 23.6617 152.015 26.3488 154.84 26.3488C155.654 26.3289 156.45 26.1044 157.154 25.6959C157.859 25.2874 158.449 24.708 158.87 24.0113V26.1095H162.008V14.6157H158.87ZM155.723 23.6985C155.056 23.7372 154.392 23.5746 153.818 23.2319C153.244 22.8891 152.785 22.3819 152.503 21.7759C152.22 21.17 152.126 20.4931 152.232 19.8329C152.338 19.1727 152.64 18.5596 153.099 18.0729C153.557 17.5862 154.151 17.2483 154.804 17.1029C155.457 16.9576 156.138 17.0115 156.76 17.2577C157.381 17.5038 157.915 17.9309 158.291 18.4836C158.668 19.0364 158.869 19.6893 158.87 20.358C158.895 21.2181 158.578 22.0529 157.988 22.6792C157.398 23.3054 156.583 23.672 155.723 23.6985Z" fill="#141A52"/>
<path d="M133.141 38.4772C132.326 38.4973 131.529 38.7218 130.823 39.1302C130.117 39.5386 129.525 40.1178 129.102 40.8146V33.6367H125.973V50.2011H129.102V44.4496C129.068 44.0161 129.125 43.5803 129.268 43.1698C129.411 42.7592 129.638 42.3826 129.933 42.0637C130.229 41.7447 130.587 41.4902 130.985 41.3162C131.384 41.1422 131.814 41.0523 132.249 41.0523C132.684 41.0523 133.114 41.1422 133.512 41.3162C133.911 41.4902 134.269 41.7447 134.564 42.0637C134.86 42.3826 135.086 42.7592 135.229 43.1698C135.372 43.5803 135.429 44.0161 135.396 44.4496V50.1919H138.249V44.4496C138.249 41.1551 135.957 38.4772 133.141 38.4772Z" fill="#141A52"/>
<path d="M142.895 14.3641C142.081 14.3858 141.284 14.611 140.578 15.0192C139.873 15.4275 139.281 16.0058 138.856 16.7015V9.78125H135.745V26.1064H138.874V24.0082C139.298 24.705 139.89 25.2843 140.596 25.6927C141.301 26.1011 142.099 26.3256 142.914 26.3457C145.739 26.3457 148.021 23.6677 148.021 20.3549C148.021 17.042 145.721 14.3641 142.895 14.3641ZM141.975 23.6954C141.118 23.6665 140.306 23.3004 139.717 22.6767C139.127 22.053 138.808 21.2219 138.828 20.3641C138.864 19.7485 139.079 19.157 139.448 18.6625C139.816 18.168 140.321 17.7922 140.901 17.5815C141.48 17.3709 142.109 17.3346 142.709 17.4771C143.309 17.6197 143.854 17.9348 144.276 18.3836C144.699 18.8324 144.981 19.3952 145.088 20.0025C145.195 20.6099 145.121 21.2351 144.876 21.8011C144.631 22.367 144.226 22.8489 143.711 23.1872C143.195 23.5254 142.592 23.7053 141.975 23.7046V23.6954Z" fill="#141A52"/>
<path d="M182.861 14.2556C182.059 14.2202 181.257 14.3525 180.509 14.644C179.76 14.9356 179.081 15.38 178.514 15.9489C177.946 16.5178 177.504 17.1987 177.215 17.9482C176.926 18.6976 176.796 19.4992 176.834 20.3016C176.814 21.119 176.965 21.9314 177.275 22.6877C177.586 23.444 178.05 24.1277 178.638 24.6958C179.226 25.2638 179.925 25.7039 180.691 25.9882C181.458 26.2726 182.275 26.3949 183.091 26.3477C187.002 26.3477 188.567 23.8722 188.751 22.6667H185.889C185.57 23.0891 185.15 23.4244 184.668 23.6416C184.185 23.8587 183.656 23.9507 183.128 23.909C182.265 23.9338 181.428 23.6153 180.8 23.0236C180.172 22.4318 179.805 21.615 179.778 20.7526H188.926V20.4305C188.889 16.7127 186.413 14.2556 182.861 14.2556ZM182.861 16.501C183.544 16.4763 184.215 16.6894 184.759 17.1039C185.302 17.5184 185.686 18.1086 185.843 18.774H179.834C179.984 18.0961 180.372 17.4943 180.927 17.0774C181.482 16.6605 182.168 16.456 182.861 16.501Z" fill="#141A52"/>
<path d="M17.0332 1.65625C16.4872 1.65625 15.9535 1.81819 15.4995 2.12154C15.0455 2.42489 14.6916 2.85602 14.4826 3.36048C14.2737 3.86494 14.219 4.42004 14.3255 4.95557C14.432 5.49111 14.695 5.98304 15.0811 6.36914C15.4672 6.75523 15.9591 7.01818 16.4946 7.1247C17.0302 7.23122 17.5853 7.17655 18.0897 6.9676C18.5942 6.75865 19.0253 6.40475 19.3287 5.95075C19.632 5.49675 19.794 4.96301 19.794 4.41699C19.794 3.68479 19.5031 2.98257 18.9854 2.46483C18.4676 1.9471 17.7654 1.65625 17.0332 1.65625Z" fill="#27339F"/>
<path d="M31.3253 3.13795C31.5765 3.13795 31.822 3.21246 32.0308 3.352C32.2397 3.49155 32.4024 3.68988 32.4985 3.92193C32.5946 4.15398 32.6198 4.4093 32.5708 4.65565C32.5218 4.90199 32.4009 5.12829 32.2233 5.3059C32.0456 5.4835 31.8193 5.60446 31.573 5.65346C31.3267 5.70246 31.0713 5.67729 30.8393 5.58117C30.6072 5.48505 30.4089 5.32231 30.2694 5.11347C30.1298 4.90463 30.0554 4.65906 30.0554 4.40789C30.0554 4.07108 30.1891 3.74811 30.4273 3.50995C30.6655 3.27179 30.9885 3.13795 31.3253 3.13795ZM31.3253 0.828125C30.6151 0.828127 29.9208 1.0389 29.3304 1.43366C28.74 1.82843 28.28 2.38945 28.0086 3.04578C27.7373 3.70211 27.6667 4.42422 27.806 5.12066C27.9452 5.8171 28.2879 6.45656 28.7908 6.95811C29.2936 7.45967 29.9339 7.80079 30.6307 7.93823C31.3275 8.07567 32.0495 8.0033 32.7051 7.73025C33.3607 7.45719 33.9206 6.99571 34.3139 6.4043C34.7071 5.81289 34.916 5.11811 34.9142 4.40789C34.9118 3.45764 34.5326 2.54717 33.8598 1.87609C33.187 1.20502 32.2756 0.828122 31.3253 0.828125Z" fill="#27339F"/>
<path d="M45.5621 2.30983C45.9771 2.30983 46.3828 2.43286 46.7278 2.66341C47.0729 2.89396 47.3418 3.22166 47.5006 3.60505C47.6594 3.98844 47.7009 4.41031 47.62 4.81731C47.539 5.22432 47.3392 5.59819 47.0457 5.89162C46.7523 6.18506 46.3785 6.38487 45.9715 6.46582C45.5645 6.54678 45.1426 6.50522 44.7592 6.34641C44.3758 6.18761 44.0481 5.9187 43.8176 5.57366C43.587 5.22862 43.4639 4.82294 43.4639 4.40796C43.4664 3.85224 43.6882 3.31996 44.0812 2.927C44.4741 2.53404 45.0064 2.31226 45.5621 2.30983ZM45.5621 9.57134e-06C44.6877 -0.00181024 43.8324 0.25591 43.1046 0.740576C42.3768 1.22524 41.8092 1.91504 41.4738 2.72255C41.1383 3.53006 41.05 4.41894 41.2202 5.27665C41.3903 6.13435 41.8112 6.92228 42.4295 7.54059C43.0478 8.15889 43.8357 8.57978 44.6934 8.74992C45.5511 8.92007 46.44 8.83179 47.2475 8.49633C48.055 8.16086 48.7448 7.59332 49.2295 6.86551C49.7142 6.1377 49.9719 5.28238 49.9701 4.40796C49.9701 3.2389 49.5057 2.11773 48.679 1.29107C47.8524 0.464416 46.7312 9.57134e-06 45.5621 9.57134e-06Z" fill="#27339F"/>
<path d="M17.0338 51.8112C17.4488 51.8112 17.8545 51.9343 18.1995 52.1649C18.5446 52.3954 18.8135 52.7231 18.9723 53.1065C19.1311 53.4898 19.1726 53.9117 19.0917 54.3187C19.0107 54.7257 18.8109 55.0996 18.5174 55.393C18.224 55.6865 17.8502 55.8863 17.4432 55.9672C17.0362 56.0482 16.6143 56.0067 16.2309 55.8479C15.8475 55.6891 15.5198 55.4201 15.2893 55.0751C15.0587 54.73 14.9356 54.3244 14.9356 53.9094C14.9381 53.3537 15.1599 52.8214 15.5529 52.4285C15.9458 52.0355 16.4781 51.8137 17.0338 51.8112ZM17.0338 49.4922C16.1598 49.4904 15.3049 49.7479 14.5773 50.2321C13.8497 50.7164 13.282 51.4056 12.9463 52.2126C12.6106 53.0196 12.5218 53.908 12.6912 54.7655C12.8606 55.6229 13.2806 56.4108 13.8979 57.0295C14.5153 57.6482 15.3024 58.0698 16.1595 58.241C17.0166 58.4122 17.9052 58.3253 18.7129 57.9912C19.5206 57.6572 20.2109 57.091 20.6967 56.3644C21.1825 55.6378 21.4418 54.7834 21.4418 53.9094C21.4418 52.7395 20.9777 51.6173 20.1513 50.7892C19.3249 49.9611 18.2037 49.4946 17.0338 49.4922Z" fill="#27339F"/>
<path d="M31.3255 50.9987C31.9043 50.9987 32.47 51.1704 32.9513 51.4919C33.4325 51.8135 33.8076 52.2705 34.0291 52.8052C34.2506 53.34 34.3086 53.9284 34.1957 54.496C34.0827 55.0637 33.804 55.5851 33.3948 55.9944C32.9855 56.4036 32.4641 56.6823 31.8964 56.7952C31.3287 56.9082 30.7403 56.8502 30.2056 56.6287C29.6709 56.4072 29.2138 56.0322 28.8923 55.5509C28.5707 55.0697 28.3991 54.5039 28.3991 53.9251C28.3991 53.149 28.7074 52.4046 29.2562 51.8558C29.805 51.307 30.5494 50.9987 31.3255 50.9987ZM31.3255 48.6797C30.2881 48.6797 29.2739 48.9873 28.4113 49.5637C27.5487 50.1401 26.8764 50.9593 26.4794 51.9178C26.0824 52.8763 25.9785 53.9309 26.1809 54.9484C26.3833 55.9659 26.8829 56.9006 27.6164 57.6342C28.35 58.3677 29.2846 58.8673 30.3021 59.0697C31.3196 59.2721 32.3743 59.1682 33.3328 58.7712C34.2913 58.3742 35.1105 57.7019 35.6868 56.8393C36.2632 55.9767 36.5709 54.9625 36.5709 53.9251C36.5709 52.5339 36.0182 51.1997 35.0345 50.216C34.0508 49.2323 32.7167 48.6797 31.3255 48.6797Z" fill="#27339F"/>
<path d="M45.561 50.1705C46.3065 50.1559 47.0395 50.3636 47.6666 50.7672C48.2936 51.1708 48.7863 51.752 49.0818 52.4366C49.3773 53.1213 49.4623 53.8784 49.3258 54.6115C49.1894 55.3446 48.8377 56.0205 48.3156 56.553C47.7936 57.0854 47.1248 57.4504 46.3946 57.6013C45.6643 57.7523 44.9057 57.6823 44.2153 57.4005C43.525 57.1186 42.9341 56.6375 42.5182 56.0186C42.1023 55.3996 41.8801 54.6709 41.88 53.9252C41.88 52.9294 42.2756 51.9744 42.9797 51.2702C43.6838 50.5661 44.6388 50.1705 45.6346 50.1705H45.561ZM45.6346 47.8516C44.433 47.8497 43.2578 48.2044 42.2578 48.8707C41.2578 49.5369 40.4779 50.4849 40.0168 51.5945C39.5556 52.7042 39.434 53.9257 39.6673 55.1045C39.9006 56.2832 40.4784 57.3663 41.3274 58.2166C42.1765 59.067 43.2587 59.6463 44.4371 59.8814C45.6155 60.1165 46.8372 59.9968 47.9475 59.5373C49.0579 59.0779 50.007 58.2994 50.6748 57.3004C51.3426 56.3014 51.699 55.1268 51.699 53.9252C51.7002 53.128 51.5443 52.3384 51.2401 51.6016C50.9358 50.8647 50.4893 50.1952 49.926 49.6311C49.3628 49.067 48.6938 48.6194 47.9575 48.3141C47.2211 48.0087 46.4318 47.8516 45.6346 47.8516Z" fill="#27339F"/>
<path d="M2.76071 26.3828C2.21468 26.3828 1.68095 26.5447 1.22695 26.8481C0.772945 27.1515 0.419102 27.5826 0.210148 28.087C0.00119489 28.5915 -0.0534751 29.1466 0.0530485 29.6821C0.159572 30.2177 0.422459 30.7096 0.808555 31.0957C1.19465 31.4818 1.68659 31.7447 2.22212 31.8513C2.75765 31.9578 3.31275 31.9031 3.81721 31.6942C4.32167 31.4852 4.75285 31.1313 5.05621 30.6773C5.35956 30.2233 5.52144 29.6896 5.52144 29.1435C5.52144 28.4114 5.2306 27.7091 4.71286 27.1914C4.19512 26.6737 3.4929 26.3828 2.76071 26.3828Z" fill="#27339F"/>
<path d="M24.175 39.4284C24.59 39.4284 24.9956 39.5514 25.3406 39.782C25.6857 40.0125 25.9546 40.3402 26.1134 40.7236C26.2722 41.107 26.3138 41.5288 26.2328 41.9358C26.1519 42.3428 25.952 42.7167 25.6586 43.0102C25.3652 43.3036 24.9913 43.5034 24.5843 43.5844C24.1773 43.6653 23.7555 43.6238 23.3721 43.465C22.9887 43.3062 22.661 43.0372 22.4304 42.6922C22.1999 42.3472 22.0768 41.9415 22.0768 41.5266C22.0768 40.9701 22.2978 40.4364 22.6913 40.0429C23.0848 39.6494 23.6185 39.4284 24.175 39.4284ZM24.175 37.1094C23.3014 37.1094 22.4473 37.3684 21.7209 37.8538C20.9945 38.3391 20.4284 39.029 20.094 39.8361C19.7597 40.6433 19.6723 41.5314 19.8427 42.3883C20.0131 43.2451 20.4338 44.0322 21.0516 44.65C21.6693 45.2677 22.4564 45.6884 23.3132 45.8588C24.1701 46.0293 25.0582 45.9418 25.8653 45.6075C26.6725 45.2732 27.3623 44.707 27.8477 43.9806C28.3331 43.2542 28.5922 42.4002 28.5922 41.5266C28.5934 40.9461 28.48 40.3712 28.2584 39.8347C28.0369 39.2983 27.7115 38.8108 27.3011 38.4004C26.8907 37.99 26.4033 37.6647 25.8668 37.4431C25.3303 37.2216 24.7554 37.1082 24.175 37.1094Z" fill="#27339F"/>
<path d="M38.4759 38.6042C39.0546 38.6042 39.6204 38.7758 40.1017 39.0973C40.5829 39.4189 40.958 39.8759 41.1795 40.4106C41.401 40.9454 41.4589 41.5338 41.346 42.1015C41.2331 42.6691 40.9544 43.1906 40.5451 43.5998C40.1359 44.0091 39.6145 44.2878 39.0468 44.4007C38.4791 44.5136 37.8907 44.4557 37.356 44.2342C36.8213 44.0127 36.3642 43.6376 36.0427 43.1564C35.7211 42.6751 35.5495 42.1093 35.5495 41.5306C35.5519 40.7552 35.861 40.0122 36.4093 39.4639C36.9576 38.9157 37.7005 38.6066 38.4759 38.6042ZM38.4759 36.2852C37.4384 36.2852 36.4243 36.5928 35.5617 37.1692C34.6991 37.7455 34.0268 38.5647 33.6297 39.5232C33.2327 40.4817 33.1289 41.5364 33.3313 42.5539C33.5337 43.5714 34.0332 44.506 34.7668 45.2396C35.5004 45.9732 36.435 46.4728 37.4525 46.6752C38.47 46.8776 39.5247 46.7737 40.4832 46.3767C41.4417 45.9797 42.2609 45.3074 42.8372 44.4448C43.4136 43.5821 43.7213 42.568 43.7213 41.5306C43.7213 40.1394 43.1686 38.8052 42.1849 37.8215C41.2012 36.8378 39.867 36.2852 38.4759 36.2852Z" fill="#27339F"/>
<path d="M9.88375 14.0156C9.33773 14.0156 8.80399 14.1776 8.34999 14.4809C7.89599 14.7843 7.54215 15.2154 7.3332 15.7199C7.12424 16.2243 7.06957 16.7794 7.1761 17.3149C7.28262 17.8505 7.54556 18.3424 7.93166 18.7285C8.31775 19.1146 8.80963 19.3776 9.34516 19.4841C9.8807 19.5906 10.4358 19.5359 10.9403 19.327C11.4447 19.118 11.8759 18.7642 12.1793 18.3102C12.4826 17.8562 12.6445 17.3224 12.6445 16.7764C12.6445 16.0442 12.3536 15.3419 11.8359 14.8242C11.3182 14.3065 10.6159 14.0156 9.88375 14.0156Z" fill="#27339F"/>
<path d="M52.7669 13.8503C53.3457 13.8503 53.9115 14.0219 54.3927 14.3435C54.874 14.665 55.249 15.1221 55.4705 15.6568C55.692 16.1915 55.75 16.7799 55.6371 17.3476C55.5241 17.9153 55.2454 18.4367 54.8362 18.8459C54.4269 19.2552 53.9055 19.5339 53.3378 19.6468C52.7701 19.7597 52.1817 19.7018 51.647 19.4803C51.1123 19.2588 50.6552 18.8837 50.3337 18.4025C50.0121 17.9212 49.8405 17.3554 49.8405 16.7767C49.8405 16.0005 50.1488 15.2562 50.6977 14.7074C51.2465 14.1586 51.9908 13.8503 52.7669 13.8503ZM52.7669 11.5312C51.7295 11.5312 50.7153 11.8389 49.8527 12.4153C48.9901 12.9916 48.3178 13.8109 47.9208 14.7694C47.5238 15.7278 47.4199 16.7825 47.6223 17.8C47.8247 18.8175 48.3243 19.7521 49.0578 20.4857C49.7914 21.2193 50.726 21.7189 51.7435 21.9212C52.7611 22.1236 53.8157 22.0198 54.7742 21.6228C55.7327 21.2258 56.5519 20.5534 57.1283 19.6908C57.7047 18.8282 58.0123 17.8141 58.0123 16.7767C58.0123 15.3855 57.4597 14.0513 56.476 13.0676C55.4923 12.0839 54.1581 11.5313 52.7669 11.5312Z" fill="#27339F"/>
<path d="M59.9447 25.3893C60.6877 25.3893 61.414 25.6098 62.0316 26.0227C62.6493 26.4357 63.1305 27.0226 63.4144 27.7092C63.6983 28.3958 63.7721 29.1512 63.6265 29.8798C63.4809 30.6084 63.1223 31.2774 62.5963 31.8021C62.0703 32.3268 61.4005 32.6836 60.6715 32.8275C59.9426 32.9713 59.1874 32.8956 58.5015 32.6101C57.8156 32.3245 57.2299 31.8418 56.8184 31.2232C56.407 30.6045 56.1883 29.8777 56.1901 29.1347C56.1926 28.1405 56.5892 27.1879 57.2931 26.4857C57.9969 25.7836 58.9505 25.3893 59.9447 25.3893ZM59.9447 23.0703C58.7431 23.0703 57.5685 23.4267 56.5695 24.0945C55.5705 24.7623 54.792 25.7114 54.3326 26.8218C53.8731 27.9321 53.7534 29.1538 53.9885 30.3322C54.2236 31.5106 54.8029 32.5928 55.6533 33.4419C56.5036 34.2909 57.5867 34.8687 58.7655 35.102C59.9443 35.3353 61.1657 35.2137 62.2754 34.7526C63.385 34.2914 64.333 33.5115 64.9992 32.5115C65.6655 31.5115 66.0202 30.3363 66.0183 29.1347C66.0159 27.5255 65.375 25.983 64.2362 24.846C63.0974 23.709 61.554 23.0703 59.9447 23.0703Z" fill="#27339F"/>
<path d="M55.0766 35.9098C53.9804 35.4642 52.7786 35.3459 51.6165 35.5693C51.2418 35.6457 50.8525 35.6035 50.5029 35.4485C50.1533 35.2934 49.8606 35.0333 49.6656 34.7043L49.546 34.5019C49.3624 34.1774 49.2817 33.8047 49.3146 33.4333C49.3474 33.062 49.4923 32.7093 49.73 32.4221C50.169 31.8835 50.4954 31.2623 50.6899 30.5952C50.8843 29.9281 50.9428 29.2288 50.8619 28.5387C50.7843 27.8384 50.566 27.1608 50.2204 26.5468C49.8747 25.9328 49.4087 25.3949 48.8502 24.9653C48.2917 24.5357 47.6522 24.2232 46.97 24.0466C46.2879 23.87 45.5771 23.8329 44.8803 23.9375C44.5004 23.9967 44.1115 23.9406 43.7637 23.7766C43.416 23.6125 43.1253 23.3481 42.9294 23.0172L41.9171 21.2779C41.7557 20.9718 41.684 20.6264 41.7101 20.2813C41.7361 19.9362 41.8589 19.6055 42.0644 19.327C42.5614 18.6432 42.8457 17.828 42.8817 16.9833C42.9177 16.1387 42.7038 15.3022 42.2668 14.5785C41.8187 13.7871 41.136 13.1544 40.3128 12.7679C39.4896 12.3813 38.5667 12.2599 37.6716 12.4206C36.7764 12.5812 35.9533 13.016 35.3159 13.6646C34.6785 14.3133 34.2583 15.1439 34.1134 16.0417C34.0205 16.6286 34.0459 17.228 34.1881 17.8049C34.3304 18.3818 34.5866 18.9243 34.9417 19.4007C35.1559 19.6949 35.2781 20.0459 35.2928 20.4095C35.3076 20.7732 35.2142 21.133 35.0245 21.4436L33.7914 23.5786C33.6334 23.9443 33.3668 24.2526 33.0277 24.4617C32.6886 24.6708 32.2934 24.7705 31.8957 24.7473C31.5162 24.7096 31.1339 24.7096 30.7545 24.7473C30.4068 24.8051 30.0498 24.757 29.7299 24.6093C29.4099 24.4616 29.1417 24.2211 28.9601 23.919L27.1196 20.7442C26.9312 20.4486 26.8311 20.1054 26.8311 19.7549C26.8311 19.4044 26.9312 19.0613 27.1196 18.7657C27.4904 18.2196 27.7029 17.5816 27.7338 16.9222C27.7646 16.2629 27.6126 15.6078 27.2944 15.0295C26.847 14.2559 26.1333 13.6715 25.2867 13.3853C24.44 13.0992 23.5182 13.1308 22.6932 13.4743C22.2561 13.6638 21.8611 13.9384 21.5312 14.2822C21.2014 14.626 20.9432 15.032 20.7719 15.4765C20.6006 15.9211 20.5195 16.3953 20.5334 16.8716C20.5472 17.3478 20.6558 17.8165 20.8527 18.2504C20.9472 18.4619 21.0644 18.6624 21.2024 18.8485C21.3844 19.1328 21.4811 19.4634 21.4811 19.801C21.4811 20.1386 21.3844 20.4691 21.2024 20.7534L18.9478 24.6644C18.7727 24.9712 18.5129 25.2211 18.1996 25.3843C17.8863 25.5475 17.5327 25.617 17.1809 25.5847C16.7975 25.5555 16.412 25.5897 16.0398 25.6859C15.4815 25.8331 14.967 26.1131 14.5403 26.5021C14.1136 26.8912 13.7874 27.3777 13.5894 27.9201C13.3914 28.4625 13.3276 29.0447 13.4034 29.6171C13.4791 30.1895 13.6922 30.7351 14.0245 31.2074C14.2127 31.4873 14.3178 31.8148 14.3275 32.1519C14.3373 32.489 14.2513 32.822 14.0797 33.1123L12.0183 36.6828C11.8515 37.0699 11.5715 37.3975 11.2151 37.6225C10.8587 37.8475 10.4426 37.9594 10.0214 37.9436C9.65685 37.9154 9.29015 37.9465 8.93553 38.0356C8.05125 38.2609 7.28595 38.8145 6.79533 39.5839C6.30471 40.3533 6.12557 41.2806 6.29437 42.1774C6.46318 43.0742 6.96727 43.873 7.70406 44.4114C8.44085 44.9497 9.35503 45.1872 10.2607 45.0755C11.0292 44.9676 11.7424 44.6147 12.2944 44.0693C12.8465 43.5239 13.2079 42.815 13.3251 42.0479C13.4615 41.126 13.2302 40.1873 12.6809 39.4344C12.5011 39.1492 12.4056 38.819 12.4056 38.4819C12.4056 38.1448 12.5011 37.8146 12.6809 37.5295L14.9539 33.5908C15.1297 33.2825 15.3909 33.0316 15.7061 32.8684C16.0212 32.7051 16.3767 32.6364 16.73 32.6706C17.1159 32.6985 17.5037 32.6674 17.8803 32.5785C18.449 32.4355 18.974 32.1549 19.4088 31.7614C19.8437 31.3679 20.1752 30.8735 20.3743 30.3218C20.5733 29.7702 20.6338 29.1781 20.5503 28.5976C20.4669 28.0171 20.242 27.4659 19.8956 26.9927C19.705 26.7155 19.5985 26.3892 19.5887 26.053C19.5789 25.7167 19.6663 25.3847 19.8404 25.0969L22.1042 21.1767C22.2787 20.8715 22.537 20.6226 22.8485 20.4595C23.1599 20.2964 23.5116 20.226 23.8619 20.2565C24.0119 20.2704 24.1628 20.2704 24.3128 20.2565C24.6601 20.2296 25.0079 20.3017 25.3158 20.4646C25.6237 20.6275 25.879 20.8745 26.0521 21.1767L27.8926 24.3515C28.079 24.662 28.1697 25.0206 28.1533 25.3823C28.137 25.7441 28.0143 26.093 27.8006 26.3853C27.4319 26.8585 27.1648 27.4027 27.016 27.9838C26.8671 28.5649 26.8397 29.1704 26.9355 29.7626C27.027 30.3427 27.2333 30.8989 27.5423 31.3983C27.8513 31.8978 28.2568 32.3307 28.7351 32.6715C29.2134 33.0124 29.7548 33.2545 30.3278 33.3836C30.9007 33.5127 31.4937 33.5263 32.0719 33.4235C32.6502 33.3207 33.2021 33.1036 33.6955 32.7849C34.1888 32.4662 34.6137 32.0524 34.9452 31.5675C35.2766 31.0827 35.5081 30.5366 35.626 29.9612C35.7439 29.3858 35.7459 28.7927 35.6319 28.2166C35.5128 27.5673 35.2415 26.9555 34.8404 26.4313C34.6227 26.1572 34.4909 25.825 34.4614 25.4763C34.432 25.1276 34.5062 24.7779 34.6748 24.4712L36.1472 21.9129C36.3162 21.621 36.5685 21.3862 36.8718 21.2386C37.1751 21.0911 37.5156 21.0375 37.8496 21.0847C38.183 21.1212 38.5194 21.1212 38.8527 21.0847C39.2075 21.0486 39.565 21.1164 39.8819 21.2798C40.1989 21.4432 40.4615 21.6951 40.638 22.0049L41.6595 23.7718C41.8423 24.0944 41.9234 24.4647 41.8922 24.8341C41.861 25.2036 41.7189 25.555 41.4846 25.8424C41.0073 26.4424 40.6676 27.14 40.4895 27.8858C40.3114 28.6315 40.2993 29.4073 40.4539 30.1583C40.6404 31.1359 41.108 32.038 41.7994 32.7539C42.4908 33.4698 43.376 33.9685 44.3466 34.189C45.0075 34.3401 45.6907 34.3682 46.3619 34.2718C46.7254 34.2244 47.0949 34.2867 47.4228 34.4507C47.7507 34.6147 48.0221 34.8728 48.2024 35.1921L48.3312 35.4129C48.5199 35.749 48.5983 36.1359 48.5554 36.5189C48.5125 36.902 48.3504 37.2619 48.092 37.5479C47.2533 38.5212 46.7449 39.7355 46.6399 41.016C46.5349 42.2966 46.8386 43.5774 47.5075 44.6744C48.1764 45.7714 49.176 46.628 50.3625 47.1211C51.5489 47.6141 52.8612 47.7182 54.1106 47.4184C55.3599 47.1185 56.482 46.4302 57.3155 45.4524C58.1489 44.4745 58.6509 43.2576 58.749 41.9765C58.8472 40.6954 58.5365 39.4162 57.8618 38.3228C57.187 37.2294 56.1829 36.3781 54.9938 35.8914L55.0766 35.9098ZM9.88335 42.8025C9.63218 42.8025 9.38668 42.728 9.17784 42.5884C8.969 42.4489 8.80619 42.2506 8.71007 42.0185C8.61396 41.7865 8.58884 41.5311 8.63784 41.2848C8.68684 41.0385 8.8078 40.8122 8.98541 40.6346C9.16301 40.457 9.38926 40.336 9.6356 40.287C9.88194 40.238 10.1373 40.2632 10.3694 40.3593C10.6014 40.4554 10.7998 40.6181 10.9393 40.827C11.0788 41.0358 11.1533 41.2814 11.1533 41.5326C11.1533 41.8694 11.0195 42.1923 10.7814 42.4305C10.5432 42.6687 10.2202 42.8025 9.88335 42.8025ZM17.0613 30.4068C16.8101 30.4068 16.5646 30.3323 16.3557 30.1928C16.1469 30.0532 15.9842 29.8549 15.888 29.6228C15.7919 29.3908 15.7667 29.1354 15.8157 28.8891C15.8647 28.6427 15.9857 28.4165 16.1633 28.2389C16.3409 28.0613 16.5672 27.9403 16.8136 27.8913C17.0599 27.8423 17.3152 27.8674 17.5473 27.9635C17.7793 28.0597 17.9777 28.2225 18.1172 28.4313C18.2567 28.6401 18.3312 28.8857 18.3312 29.1368C18.3312 29.3059 18.2975 29.4734 18.232 29.6293C18.1665 29.7852 18.0704 29.9264 17.9495 30.0447C17.8287 30.163 17.6854 30.256 17.5281 30.3181C17.3708 30.3803 17.2028 30.4104 17.0337 30.4068H17.0613ZM24.7085 17.9282C24.5569 17.9977 24.393 18.0367 24.2263 18.0428C24.0596 18.049 23.8933 18.0222 23.7369 17.9641C23.5805 17.906 23.4371 17.8177 23.3149 17.7042C23.1926 17.5907 23.094 17.4541 23.0245 17.3025C22.955 17.1508 22.9161 16.9869 22.9099 16.8202C22.9037 16.6535 22.9305 16.4872 22.9886 16.3308C23.0467 16.1745 23.135 16.0311 23.2485 15.9089C23.3621 15.7866 23.4986 15.6879 23.6502 15.6184C23.9569 15.4805 24.3054 15.4688 24.6206 15.5859C24.9358 15.703 25.1922 15.9395 25.3343 16.2442C25.4039 16.3958 25.4428 16.5597 25.449 16.7264C25.4552 16.8932 25.4285 17.0595 25.3704 17.2159C25.3123 17.3723 25.2239 17.5157 25.1103 17.6379C24.9968 17.7601 24.8603 17.8588 24.7085 17.9282ZM31.3527 31.235C30.9377 31.235 30.532 31.1119 30.187 30.8814C29.842 30.6508 29.5731 30.3232 29.4142 29.9398C29.2554 29.5564 29.2139 29.1345 29.2948 28.7275C29.3758 28.3205 29.5757 27.9467 29.8691 27.6532C30.1625 27.3598 30.5363 27.1599 30.9433 27.079C31.3503 26.998 31.7722 27.0396 32.1556 27.1984C32.539 27.3572 32.8667 27.6261 33.0972 27.9712C33.3278 28.3162 33.4509 28.7218 33.4509 29.1368C33.4509 29.6933 33.2298 30.227 32.8363 30.6205C32.4428 31.014 31.9092 31.235 31.3527 31.235ZM38.4754 18.8761C38.0604 18.8761 37.6548 18.753 37.3097 18.5225C36.9647 18.2919 36.6957 17.9642 36.5369 17.5808C36.3781 17.1975 36.3366 16.7756 36.4175 16.3686C36.4985 15.9616 36.6983 15.5878 36.9918 15.2943C37.2852 15.0009 37.659 14.801 38.066 14.7201C38.473 14.6391 38.895 14.6807 39.2784 14.8395C39.6617 14.9983 39.9894 15.2673 40.2199 15.6123C40.4505 15.9573 40.5736 16.363 40.5736 16.7779C40.5736 17.3344 40.3525 17.8681 39.959 18.2615C39.5656 18.655 39.0319 18.8761 38.4754 18.8761ZM45.6533 32.0632C45.0745 32.0632 44.5088 31.8916 44.0275 31.57C43.5463 31.2485 43.1712 30.7914 42.9497 30.2567C42.7282 29.722 42.6702 29.1336 42.7831 28.5659C42.8961 27.9983 43.1748 27.4768 43.584 27.0676C43.9933 26.6583 44.5147 26.3796 45.0824 26.2667C45.6501 26.1538 46.2385 26.2117 46.7732 26.4332C47.3079 26.6547 47.765 27.0298 48.0865 27.511C48.4081 27.9922 48.5797 28.558 48.5797 29.1368C48.5797 29.9129 48.2714 30.6573 47.7225 31.2061C47.1737 31.7549 46.4294 32.0632 45.6533 32.0632ZM56.4478 42.2963C56.2977 43.0236 55.9353 43.6902 55.4065 44.2115C54.8776 44.7329 54.206 45.0856 53.4766 45.2253C52.7472 45.3649 51.9928 45.2851 51.3087 44.9959C50.6247 44.7068 50.0418 44.2212 49.6337 43.6007C49.2256 42.9803 49.0107 42.2527 49.0161 41.5101C49.0216 40.7675 49.2472 40.0431 49.6643 39.4287C50.0814 38.8143 50.6714 38.3374 51.3596 38.0583C52.0478 37.7792 52.8033 37.7105 53.5306 37.8608C54.5055 38.0623 55.3605 38.6427 55.9076 39.4745C56.4546 40.3063 56.649 41.3213 56.4478 42.2963Z" fill="#F7651C"/>
</svg>
