<svg t="1654154558317" class="icon" viewBox="0 0 1287 1024" version="1.1" xmlns="http://www.w3.org/2000/svg" p-id="2042" width="16" height="16"><path d="M89.892571 803.1744c31.466057 0 45.173029 12.9024 51.104915 22.315886h36.842057c-5.646629-24.480914-27.984457-52.977371-87.946972-52.977372-45.458286 0-76.397714 20.443429-76.397714 54.593829 0 34.143086 27.157943 52.721371 65.097143 56.202971l33.887086 3.503543c19.631543 2.428343 33.082514 8.330971 33.082514 26.631314 0 15.316114-15.338057 26.346057-44.3904 26.346058-34.954971 0-50.293029-16.128-55.3984-28.240458H7.314286c7.2704 27.179886 31.729371 58.901943 93.856914 58.901943 54.059886 0 81.239771-25.007543 81.239771-59.4944 0-39.804343-29.600914-55.252114-67.510857-58.631314-12.917029-1.338514-21.796571-2.421029-33.616457-3.503543-20.187429-2.421029-31.217371-9.947429-31.217371-22.864457 0-13.919086 13.7728-22.784 39.826285-22.784zM237.787429 946.168686c2.684343 5.376 17.473829 23.669029 47.074742 23.669028 35.488914 0 64.533943-26.624 64.533943-70.992457 0-44.368457-29.045029-70.933943-64.555885-70.933943-29.045029 0-44.624457 19.360914-46.752915 24.480915v-21.525943h-34.186971v193.119085h33.9968l-0.1024-77.816685z m-0.270629-47.323429c0-23.376457 15.067429-40.886857 38.458514-40.886857 23.405714 0 38.743771 17.466514 38.743772 40.886857s-15.0016 40.945371-38.743772 40.945372c-23.734857 0-38.458514-17.737143-38.458514-40.8576v-0.087772zM402.066286 894.3616c0-21.255314 13.458286-35.766857 34.172343-35.766857 20.721371 0 33.060571 14.262857 33.060571 35.766857v72.630857h34.706286v-79.345371c0-34.706286-22.586514-59.713829-56.736915-59.713829a51.8144 51.8144 0 0 0-45.202285 25.819429v-84.721372h-34.143086v197.961143h34.1504v-72.630857zM591.703771 827.399314c-41.691429 0-71.277714 29.301029-71.277714 71.548343 0 40.864914 29.856914 71.5264 73.969372 71.5264 46.262857 0 64.811886-29.301029 66.962285-43.285943h-33.8944c-2.421029 3.759543-11.285943 14.877257-33.060571 14.877257-22.615771 0-38.253714-16.149943-39.548343-37.397942h108.222171v-3.766858c0-44.448914-29.403429-73.501257-71.3728-73.501257z m0 26.624c17.481143 0 30.134857 9.669486 35.2256 26.901943h-70.992457c4.293486-16.954514 17.210514-26.901943 35.766857-26.901943zM714.357029 895.422171c0-21.525943 10.496-31.195429 39.519085-31.195428h36.322743v-34.172343h-31.729371c-30.134857 0-40.608914 15.879314-44.112457 23.676343v-22.864457h-34.1504v135.994514h34.1504v-71.438629zM864.585143 827.399314c-41.691429 0-71.2704 29.301029-71.2704 71.548343 0 40.864914 29.856914 71.5264 73.947428 71.5264 46.262857 0 64.833829-29.301029 66.976915-43.285943h-33.9968c-2.399086 3.759543-11.285943 14.877257-33.082515 14.877257-22.593829 0-38.253714-16.149943-39.5264-37.397942h108.119772v-3.766858c0.1024-44.448914-29.220571-73.501257-71.168-73.501257z m0 26.624c17.488457 0 30.112914 9.669486 35.232914 26.901943h-70.992457c4.2496-16.954514 17.210514-26.901943 35.759543-26.901943zM957.1328 966.999771h165.390629v-32h-129.367772v-52.721371h70.736457v-31.473371h-70.736457v-43.578515H1111.771429v-31.195428h-154.638629v190.968685z" fill="#141A52" p-id="2043"></path><path d="M1239.259429 966.9632h42.181485l-59.962514-69.405257 59.962514-66.698972h-39.775085l-39.804343 44.3904-38.458515-44.3904h-44.119771l60.5184 68.871315-60.240457 67.232914h39.5264l40.374857-44.924343 39.797029 44.924343z" fill="#141A52" p-id="2044"></path><path d="M617.837714 160.029257c81.92 0 163.810743 15.637943 226.325943 46.877257 104.740571 52.355657 121.738971 132.000914 51.002514 193.199543a246.103771 246.103771 0 0 0-51.002514-33.133714c-61.878857-30.939429-142.7968-46.570057-223.904914-46.869943h-2.442972l0.021943-160.073143zM391.489829 273.232457c62.5152 31.261257 144.493714 46.884571 226.347885 46.884572v160.043885c-81.92 0-163.810743-15.616-226.325943-46.877257-104.740571-52.355657-121.738971-131.978971-51.002514-193.199543a245.6064 245.6064 0 0 0 50.980572 33.148343z" fill="#27339F" p-id="2045"></path><path d="M844.1856 433.261714a245.569829 245.569829 0 0 0 51.002514-33.148343c70.7584 61.220571 53.76 140.843886-51.002514 193.221486-62.537143 31.239314-144.457143 46.833371-226.377143 46.833372V480.138971c81.941943 0 163.883886-15.616 226.377143-46.877257zM340.5312 240.0768c-70.7584-61.198629-53.781943-140.821943 51.002514-193.1776C453.412571 15.937829 534.330514 0.321829 615.438629 0h2.464914v160.0512c-81.934629 0-163.854629 15.637943-226.377143 46.8992a246.184229 246.184229 0 0 0-50.395429 32.658286l-0.599771 0.468114z" fill="#F7651C" p-id="2046"></path></svg>